<?xml version="1.0" standalone="no"?>
<!DOCTYPE svg PUBLIC "-//W3C//DTD SVG 20010904//EN"
 "http://www.w3.org/TR/2001/REC-SVG-20010904/DTD/svg10.dtd">
<svg version="1.0" xmlns="http://www.w3.org/2000/svg"
 width="481.000000pt" height="519.000000pt" viewBox="0 0 481.000000 519.000000"
 preserveAspectRatio="xMidYMid meet">

<g transform="translate(0.000000,519.000000) scale(0.100000,-0.100000)"
fill="#000000" stroke="none">
<path d="M2143 4109 c-104 -21 -234 -65 -341 -114 -83 -39 -238 -130 -249
-147 -3 -7 7 -3 23 9 36 25 188 97 269 128 93 35 274 65 396 65 125 0 297 -28
397 -64 344 -124 583 -326 727 -615 41 -81 85 -184 85 -196 0 -3 -147 -5 -327
-5 -376 0 -476 -10 -551 -57 -60 -37 -92 -97 -92 -172 0 -74 14 -118 47 -154
68 -71 137 -87 403 -93 192 -4 217 -7 234 -23 21 -21 16 -46 -15 -79 -19 -22
-26 -22 -284 -22 l-264 0 -35 -31 c-19 -16 -63 -62 -97 -100 l-62 -70 394 3
c382 4 396 4 456 27 113 41 158 114 151 245 -4 83 -19 114 -77 153 -51 34
-122 45 -351 50 -243 6 -260 10 -260 68 0 24 6 37 19 45 13 6 154 10 389 10
l370 0 7 -104 c11 -159 -15 -356 -65 -491 -146 -397 -435 -673 -838 -799 -96
-30 -217 -46 -352 -46 -197 0 -338 30 -521 111 -50 21 -93 39 -97 39 -11 0
108 -79 158 -104 65 -34 241 -92 340 -113 106 -22 380 -25 485 -4 88 17 291
84 359 118 243 122 440 305 584 541 44 72 108 232 140 351 24 90 26 110 26
321 0 211 -2 231 -26 321 -38 138 -108 297 -184 410 -36 54 -72 106 -80 114
-8 8 -34 37 -57 63 -49 57 -184 176 -243 214 -122 78 -353 169 -507 199 -133
26 -356 25 -484 -2z"/>
</g>
</svg>
